HIERARCHY
ROOT Hips
{
	OFFSET 0.00 0.00 0.00
	CHANNELS 6 Xposition Yposition Zposition Xrotation Yrotation Zrotation
	JOINT Spine
	{
		OFFSET 0.00000 0.84964 1.27446
		CHANNELS 3 Xrotation Yrotation Zrotation
		JOINT Spine1
		{
			OFFSET 0.00000 0.29508 1.67346
			CHANNELS 3 Xrotation Yrotation Zrotation
			JOINT Spine2
			{
				OFFSET 0.00000 0.14810 1.69281
				CHANNELS 3 Xrotation Yrotation Zrotation
				JOINT Spine3
				{
					OFFSET 0.00000 0.00000 1.69928
					CHANNELS 3 Xrotation Yrotation Zrotation
					JOINT Neck
					{
						OFFSET 0.00000 -0.63723 4.46061
						CHANNELS 3 Xrotation Yrotation Zrotation
						JOINT Head
						{
							OFFSET 0.00000 -0.40573 2.30101
							CHANNELS 3 Xrotation Yrotation Zrotation
							End Site
							{
								OFFSET 0.00000 0.00000 2.75071
							}
						}
					}
					JOINT RightShoulder
					{
						OFFSET -0.72014 -1.20022 3.88874
						CHANNELS 3 Xrotation Yrotation Zrotation
						JOINT RightArm
						{
							OFFSET -3.57668 0.00000 0.00000
							CHANNELS 3 Xrotation Yrotation Zrotation
							JOINT RightForeArm
							{
								OFFSET -5.92485 0.00000 0.00000
								CHANNELS 3 Xrotation Yrotation Zrotation
								JOINT RightHand
								{
									OFFSET -6.63013 0.00000 0.00000
									CHANNELS 3 Xrotation Yrotation Zrotation
									JOINT RightHandEnd
									{
										OFFSET -1.65321 0.00000 0.00000
										CHANNELS 3 Xrotation Yrotation Zrotation
										End Site
										{
											OFFSET -1.65321 0.00000 0.00000
										}
									}
									JOINT RightHandThumb1
									{
										OFFSET -0.66129 -1.10214 -0.44086
										CHANNELS 3 Yrotation Xrotation Zrotation
										End Site
										{
											OFFSET -1.59688 -0.42788 0.00000
										}
									}
								}
							}
						}
					}
					JOINT LeftShoulder
					{
						OFFSET 0.72014 -1.20022 3.88874
						CHANNELS 3 Xrotation Yrotation Zrotation
						JOINT LeftArm
						{
							OFFSET 3.57668 0.00000 0.00000
							CHANNELS 3 Xrotation Yrotation Zrotation
							JOINT LeftForeArm
							{
								OFFSET 5.92485 0.00000 0.00000
								CHANNELS 3 Xrotation Yrotation Zrotation
								JOINT LeftHand
								{
									OFFSET 6.63013 0.00000 0.00000
									CHANNELS 3 Xrotation Yrotation Zrotation
									JOINT LeftHandEnd
									{
										OFFSET 1.65321 0.00000 0.00000
										CHANNELS 3 Xrotation Yrotation Zrotation
										End Site
										{
											OFFSET 1.65321 0.00000 0.00000
										}
									}
									JOINT LeftHandThumb1
									{
										OFFSET 0.66129 -1.10214 -0.44086
										CHANNELS 3 Yrotation Xrotation Zrotation
										End Site
										{
											OFFSET 1.59688 -0.42788 0.00000
										}
									}
								}
							}
						}
					}
				}
			}
		}
	}
	JOINT RightUpLeg
	{
		OFFSET -2.13640 0.00000 -0.62412
		CHANNELS 3 Xrotation Yrotation Zrotation
		JOINT RightLeg
		{
			OFFSET 0.00000 0.00000 -11.49360
			CHANNELS 3 Xrotation Yrotation Zrotation
			JOINT RightFoot
			{
				OFFSET 0.00000 0.00000 -8.79036
				CHANNELS 3 Xrotation Yrotation Zrotation
				JOINT RightToeBase
				{
					OFFSET 0.00000 -3.94625 -1.43632
					CHANNELS 3 Xrotation Yrotation Zrotation
					End Site
					{
						OFFSET 0.00000 -1.72833 -0.00000
					}
				}
			}
		}
	}
	JOINT LeftUpLeg
	{
		OFFSET 2.13640 0.00000 -0.62412
		CHANNELS 3 Xrotation Yrotation Zrotation
		JOINT LeftLeg
		{
			OFFSET 0.00000 0.00000 -11.49360
			CHANNELS 3 Xrotation Yrotation Zrotation
			JOINT LeftFoot
			{
				OFFSET 0.00000 0.00000 -8.79036
				CHANNELS 3 Xrotation Yrotation Zrotation
				JOINT LeftToeBase
				{
					OFFSET 0.00000 -3.94625 -1.43632
					CHANNELS 3 Xrotation Yrotation Zrotation
					End Site
					{
						OFFSET 0.00000 -1.72833 -0.00000
					}
				}
			}
		}
	}
}
MOTION
Frames: 12
Frame Time: 0.008342
 8.8729 40.0006 22.9802 1.1119 -1.2514 -148.9764 9.0892 -9.5160 0.9455 1.3036 -2.7268 0.4245 5.2847 2.4569 20.1066 2.0718 8.1882 0.4795 -0.5996 2.9608 -8.0082 0.4429 5.7051 -28.8342 2.0735 -2.1586 9.1089 -11.1919 -54.7044 17.3667 0.0000 0.0000 32.1982 -45.7578 26.9570 -3.5346 0.0000 0.0000 0.0000 -0.0000 0.0000 0.0000 -7.0313 20.4125 -4.0476 10.0143 63.2052 -5.1828 -0.0000 -0.0000 -34.1730 -1.5092 -20.6760 10.6128 0.0000 -0.0000 -0.0000 -0.0000 0.0000 0.0000 -15.8487 6.5370 -52.1702 19.3785 0.0000 0.0000 -6.5046 13.3311 27.0343 5.2270 0.0000 0.0000 -23.0938 -0.5348 -12.5319 34.3096 0.0000 0.0000 -8.7069 -0.7915 -9.6950 -122.7404 0.0000 -0.0000
 8.8400 39.9059 22.9493 1.1267 -1.1798 -148.8119 9.1068 -9.4715 0.9198 1.3028 -2.7132 0.4339 5.2252 2.3951 20.0079 2.0445 8.1912 0.4660 -0.6476 2.8991 -8.0258 0.3969 5.6571 -28.8206 2.1260 -2.1012 9.1410 -11.2760 -54.7097 17.2276 0.0000 0.0000 31.9078 -46.2156 26.6175 -3.3500 -0.0000 0.0000 0.0000 0.0000 -0.0000 -0.0000 -7.0221 20.3355 -4.1695 10.7485 63.2970 -5.9657 -0.0000 -0.0000 -34.6354 -1.5455 -20.5549 10.6115 0.0000 -0.0000 0.0000 0.0000 -0.0000 0.0000 -16.0253 6.9446 -51.9944 19.6685 0.0000 0.0000 -6.4269 13.0321 26.6766 5.3946 0.0000 0.0000 -23.1692 -0.2696 -13.8265 36.1139 0.0000 0.0000 -9.2652 -0.8070 -9.9622 -138.5306 0.0000 -0.0000
 8.8057 39.8070 22.9141 1.1705 -1.1707 -148.6489 9.0952 -9.5004 0.8928 1.2990 -2.7054 0.4234 5.1815 2.3405 19.9254 2.0139 8.1924 0.4525 -0.6941 2.8473 -8.0374 0.3573 5.6149 -28.7991 2.1628 -2.0285 9.1783 -11.3313 -54.6951 17.1129 0.0000 0.0000 31.6084 -46.6290 26.2858 -3.1821 -0.0000 -0.0000 0.0000 -0.0000 -0.0000 0.0000 -7.0192 20.2610 -4.2844 11.8121 63.3234 -7.0240 -0.0000 -0.0000 -35.0785 -1.5472 -20.4344 10.6227 0.0000 0.0000 0.0000 0.0000 -0.0000 0.0000 -16.2255 7.2921 -51.7422 19.9859 0.0000 0.0000 -6.3558 12.7250 26.2585 5.5533 0.0000 0.0000 -23.2317 -0.0828 -15.0420 37.9499 0.0000 0.0000 -9.7770 -0.8204 -10.4185 -150.4400 0.0000 -0.0000
 8.7692 39.7047 22.8761 1.2628 -1.1803 -148.5180 9.0974 -9.5418 0.8873 1.2985 -2.7492 0.3940 5.1402 2.3069 19.8573 1.9904 8.1933 0.4372 -0.7435 2.7943 -8.0399 0.3242 5.5892 -28.7642 2.1825 -1.9638 9.2192 -11.3245 -54.6295 17.0655 0.0000 0.0000 31.2824 -46.9515 25.9650 -3.0402 0.0000 0.0000 0.0000 0.0000 0.0000 0.0000 -7.0248 20.1939 -4.3850 13.1204 63.2843 -8.2822 -0.0000 -0.0000 -35.5011 -1.4931 -20.3166 10.6304 0.0000 -0.0000 0.0000 0.0000 -0.0000 0.0000 -16.4098 7.6016 -51.4242 20.3290 0.0000 0.0000 -6.3112 12.4224 25.8448 5.6937 0.0000 0.0000 -23.2084 0.0283 -16.1242 39.7445 0.0000 0.0000 -10.2680 -0.8383 -11.0016 -159.0824 0.0000 -0.0000
 8.7308 39.5983 22.8349 1.3930 -1.2625 -148.4125 9.0747 -9.6837 0.8758 1.2940 -2.7417 0.3935 5.1214 2.2158 19.7746 1.9669 8.2123 0.4292 -0.7941 2.7483 -8.0330 0.3044 5.5748 -28.7126 2.1757 -1.9101 9.2650 -11.2499 -54.5063 17.0797 0.0000 0.0000 30.9265 -47.1288 25.6535 -2.9439 0.0000 0.0000 0.0000 0.0000 0.0000 -0.0000 -7.0397 20.1466 -4.4591 14.6108 63.1774 -9.6824 -0.0000 -0.0000 -35.9064 -1.3689 -20.2116 10.6430 0.0000 -0.0000 -0.0000 0.0000 -0.0000 0.0000 -16.6092 7.8284 -51.0730 20.6699 0.0000 0.0000 -6.2745 12.1246 25.4539 5.8002 0.0000 0.0000 -23.1514 0.0296 -17.0899 41.5051 0.0000 0.0000 -10.7924 -0.8715 -11.6327 -165.3505 0.0000 -0.0000
 8.6899 39.4878 22.7921 1.5535 -1.3849 -148.3510 9.0419 -9.8459 0.8836 1.2904 -2.7874 0.3626 5.1115 2.1466 19.7321 1.9460 8.2317 0.4121 -0.8505 2.7049 -8.0137 0.2974 5.5747 -28.6425 2.1379 -1.8885 9.3152 -11.0915 -54.3049 17.1744 0.0000 0.0000 30.5293 -47.1172 25.3534 -2.9037 0.0000 0.0000 0.0000 -0.0000 0.0000 0.0000 -7.0662 20.1275 -4.4982 16.1882 63.0064 -11.1390 -0.0000 -0.0000 -36.2897 -1.1680 -20.1228 10.6557 -0.0000 -0.0000 -0.0000 0.0000 -0.0000 0.0000 -16.8094 7.9993 -50.7154 20.9900 0.0000 0.0000 -6.2451 11.8387 25.1385 5.8585 0.0000 0.0000 -23.0342 -0.0593 -17.8992 43.1778 0.0000 0.0000 -11.3622 -0.9261 -12.2336 -169.9370 0.0000 -0.0000
 8.6472 39.3733 22.7479 1.7771 -1.5991 -148.3016 9.0109 -10.1134 0.8874 1.2712 -2.8333 0.3358 5.1175 2.0581 19.6787 1.9211 8.2507 0.4137 -0.9101 2.6723 -7.9878 0.3058 5.5900 -28.5529 2.0580 -1.8949 9.3625 -10.8468 -54.0294 17.3448 0.0000 0.0000 30.0850 -46.8911 25.0593 -2.9287 -0.0000 0.0000 -0.0000 -0.0000 -0.0000 -0.0000 -7.0956 20.1380 -4.5107 17.7525 62.7979 -12.5641 -0.0000 -0.0000 -36.6444 -0.8975 -20.0571 10.6698 0.0000 0.0000 -0.0000 -0.0000 0.0000 -0.0000 -16.9749 8.0458 -50.4653 21.2172 0.0000 0.0000 -6.1823 11.5591 24.9492 5.8532 0.0000 0.0000 -22.8826 -0.2835 -18.5881 44.7820 0.0000 0.0000 -12.0059 -0.9877 -12.7450 -173.2045 0.0000 -0.0000
 8.6023 39.2544 22.7041 2.0239 -1.8696 -148.2803 8.9601 -10.4285 0.8956 1.2648 -2.8753 0.3087 5.1156 1.9450 19.6395 1.9048 8.2764 0.4017 -0.9838 2.6289 -7.9477 0.3302 5.6192 -28.4449 1.9471 -1.9599 9.4142 -10.5203 -53.6582 17.6029 0.0000 0.0000 29.5855 -46.4245 24.7781 -3.0252 0.0000 0.0000 0.0000 0.0000 -0.0000 -0.0000 -7.1282 20.1659 -4.4927 19.2141 62.5752 -13.8808 -0.0000 -0.0000 -36.9601 -0.5498 -20.0124 10.6796 0.0000 0.0000 0.0000 0.0000 -0.0000 0.0000 -17.1240 8.0171 -50.3212 21.3425 0.0000 0.0000 -6.0714 11.2816 24.8947 5.7741 0.0000 0.0000 -22.7047 -0.6030 -19.1062 46.2590 0.0000 0.0000 -12.6949 -1.0435 -13.1194 -175.3692 0.0000 -0.0000
 8.5553 39.1301 22.6611 2.2917 -2.2037 -148.2655 8.9036 -10.7905 0.9034 1.2429 -2.9347 0.2763 5.1207 1.8224 19.5919 1.8830 8.2966 0.3994 -1.0663 2.5936 -7.9026 0.3668 5.6618 -28.3216 1.7877 -2.0658 9.4618 -10.1246 -53.2129 17.9182 0.0000 0.0000 29.0339 -45.7218 24.4996 -3.1956 -0.0000 -0.0000 0.0000 -0.0000 -0.0000 -0.0000 -7.1586 20.2144 -4.4543 20.5327 62.3655 -15.0537 -0.0000 -0.0000 -37.2280 -0.1690 -19.9888 10.6909 -0.0000 -0.0000 0.0000 -0.0000 0.0000 0.0000 -17.2449 7.9078 -50.3422 21.3238 0.0000 0.0000 -5.8775 10.9967 24.9860 5.6115 0.0000 0.0000 -22.5330 -1.0037 -19.4683 47.6130 0.0000 0.0000 -13.4151 -1.0892 -13.3199 -176.6758 0.0000 -0.0000
 8.5062 39.0000 22.6201 2.5627 -2.5915 -148.2481 8.8313 -11.1863 0.9077 1.2199 -2.9976 0.2445 5.1196 1.6821 19.5332 1.8582 8.3140 0.3955 -1.1618 2.5566 -7.8530 0.4127 5.7151 -28.1875 1.5885 -2.2220 9.5079 -9.6782 -52.6919 18.2815 0.0000 0.0000 28.4306 -44.8004 24.2272 -3.4374 0.0000 0.0000 -0.0000 0.0000 -0.0000 -0.0000 -7.1830 20.2665 -4.4057 21.6700 62.1977 -16.0515 -0.0000 -0.0000 -37.4387 0.2214 -19.9790 10.7008 0.0000 -0.0000 -0.0000 0.0000 -0.0000 0.0000 -17.3362 7.7313 -50.5583 21.1304 0.0000 0.0000 -5.5684 10.6923 25.2217 5.3636 0.0000 0.0000 -22.3929 -1.4625 -19.6595 48.8204 0.0000 0.0000 -14.1370 -1.1286 -13.3477 -177.2432 0.0000 -0.0000
 8.4556 38.8640 22.5821 2.8381 -3.0508 -148.1989 8.7406 -11.6342 0.8979 1.1879 -3.0597 0.2085 5.1126 1.5229 19.4585 1.8299 8.3228 0.3937 -1.2714 2.5167 -7.8027 0.4646 5.7799 -28.0505 1.3528 -2.4242 9.5529 -9.2095 -52.1063 18.6621 0.0000 0.0000 27.7856 -43.6988 23.9620 -3.7436 -0.0000 -0.0000 0.0000 0.0000 0.0000 0.0000 -7.1905 20.3183 -4.3656 22.6164 62.0817 -16.8663 -0.0000 -0.0000 -37.5910 0.5787 -19.9799 10.7096 0.0000 -0.0000 -0.0000 -0.0000 0.0000 0.0000 -17.3827 7.4655 -51.0347 20.7129 0.0000 0.0000 -5.1038 10.3540 25.6081 5.0339 0.0000 0.0000 -22.3201 -1.9803 -19.6984 49.8791 0.0000 0.0000 -14.8433 -1.1785 -13.2306 -177.2393 0.0000 -0.0000
 8.4028 38.7205 22.5476 3.0637 -3.5075 -148.1429 8.6270 -12.0454 0.8857 1.1702 -3.1177 0.1775 5.0808 1.3562 19.3689 1.7979 8.3121 0.3804 -1.3986 2.4827 -7.7487 0.5164 5.8456 -27.9184 1.0937 -2.6535 9.5909 -8.7297 -51.4772 19.0730 0.0000 0.0000 27.0908 -42.4825 23.7040 -4.0817 0.0000 0.0000 -0.0000 -0.0000 -0.0000 -0.0000 -7.2112 20.3619 -4.3143 23.4240 62.0271 -17.5333 -0.0000 -0.0000 -37.6772 0.8797 -19.9661 10.7204 -0.0000 0.0000 0.0000 -0.0000 -0.0000 0.0000 -17.4175 7.2064 -51.7030 20.1129 0.0000 0.0000 -4.4910 9.9749 26.1128 4.6332 0.0000 0.0000 -22.3209 -2.4684 -19.5291 50.7450 0.0000 0.0000 -15.4922 -1.2744 -13.0006 -176.8436 0.0000 -0.0000
